<svg xmlns="http://www.w3.org/2000/svg" xmlns:xlink="http://www.w3.org/1999/xlink" width="600" height="600"><polyline fill="none" stroke="#DB2B39" stroke-width="4" points="196 60 204 60 212 60 220 60 228 60"/><polyline fill="none" stroke="#FE9920" stroke-width="4" points="188 204 180 204 180 212 180 220 180 228 180 236 180 244 180 252 180 260 180 268 180 276 180 284 180 292 180 300 180 308 180 316 180 324 180 332 180 340 180 348 180 356 188 356"/><polyline fill="none" stroke="#DB2B39" stroke-width="4" points="212 108 204 108 204 116 204 124 204 132 204 140 204 148 204 156 204 164 212 164"/><polyline fill="none" stroke="#FE9920" stroke-width="4" points="172 180 180 180 188 180"/><polyline fill="none" stroke="#DB2B39" stroke-width="4" points="132 444 132 452 132 460 140 460 148 460 156 460 164 460 172 460 180 460 188 460 196 460 204 460 212 460 220 460 228 460 236 460 244 460 252 460 260 460 260 468 268 468 276 468 284 468 292 468 300 468 308 468 316 468 324 468"/><polyline fill="none" stroke="#DB2B39" stroke-width="4" points="396 108 388 108 388 116 388 124 388 132 388 140 388 148 396 148"/><polyline fill="none" stroke="#566E3D" stroke-width="4" points="28 100 28 92 20 92 20 84 20 76 20 68 20 60 20 52 20 44 20 36 20 28 20 20 20 12 28 12"/><polyline fill="none" stroke="#566E3D" stroke-width="4" points="484 156 492 156 500 156"/><polyline fill="none" stroke="#2E5266" stroke-width="4" points="172 68 180 68 188 68"/><polyline fill="none" stroke="#2E5266" stroke-width="4" points="468 348 468 340 476 340 484 340 492 340 500 340 508 340 516 340 524 340 532 340"/><polyline fill="none" stroke="#DB2B39" stroke-width="4" points="284 172 284 164 284 156 284 148 284 140 284 132 276 132 276 124 276 116 276 108 276 100 276 92 276 84 276 76 276 68 284 68"/><polyline fill="none" stroke="#FE9920" stroke-width="4" points="436 532 444 532 452 532 460 532 468 532"/><polyline fill="none" stroke="#566E3D" stroke-width="4" points="532 332 532 324 540 324 548 324 548 332 548 340 548 348 548 356 548 364 548 372 548 380 548 388 548 396 548 404"/><polyline fill="none" stroke="#2E5266" stroke-width="4" points="356 484 364 484 372 484 380 484 388 484 396 484"/><polyline fill="none" stroke="#566E3D" stroke-width="4" points="380 452 388 452 396 452 404 452 412 452"/><polyline fill="none" stroke="#DB2B39" stroke-width="4" points="60 124 60 132 60 140 60 148 60 156 60 164 60 172 60 180"/><polyline fill="none" stroke="#2E5266" stroke-width="4" points="476 196 476 188 476 180 476 172 476 164 476 156 476 148 476 140 476 132 476 124 476 116 476 108 476 100 476 92 476 84 476 76 476 68 476 60 476 52 476 44 468 44 460 44 452 44"/><polyline fill="none" stroke="#DB2B39" stroke-width="4" points="204 484 204 476 204 468 212 468 220 468 228 468 236 468 244 468 252 468"/><polyline fill="none" stroke="#566E3D" stroke-width="4" points="356 116 356 124 356 132 356 140 364 140 364 148 364 156 364 164 372 164 380 164 388 164 396 164 404 164 412 164 420 164 428 164 436 164 444 164 452 164"/><polyline fill="none" stroke="#FE9920" stroke-width="4" points="228 244 228 236 220 236 220 228 220 220 220 212 220 204 220 196 220 188 228 188"/><polyline fill="none" stroke="#FE9920" stroke-width="4" points="172 212 180 212 188 212"/><polyline fill="none" stroke="#2E5266" stroke-width="4" points="308 476 308 484 316 484 316 492 316 500 316 508 316 516 316 524 316 532 316 540 316 548 324 548 332 548 340 548"/><polyline fill="none" stroke="#DB2B39" stroke-width="4" points="172 284 172 292 180 292 188 292 188 300 188 308 188 316 188 324 188 332 188 340 188 348"/><polyline fill="none" stroke="#566E3D" stroke-width="4" points="68 540 68 532 68 524 68 516 68 508 68 500 68 492 76 492 76 484 76 476 76 468 76 460 76 452 76 444 76 436 76 428 76 420 76 412 76 404 76 396 76 388 76 380 76 372 76 364 76 356 76 348 76 340 76 332 76 324 76 316 76 308 84 308 92 308"/><polyline fill="none" stroke="#DB2B39" stroke-width="4" points="380 116 380 124 388 124 396 124 404 124 412 124"/><polyline fill="none" stroke="#FE9920" stroke-width="4" points="108 548 108 540 108 532 108 524 108 516 116 516 124 516 132 516 140 516 148 516 156 516 164 516 172 516 180 516 188 516 196 516 204 516 212 516 212 508 220 508 228 508 236 508 244 508 244 500 252 500 260 500 268 500 276 500 284 500 292 500 300 500 308 500 316 500 324 500 324 492 332 492 340 492 348 492 356 492 364 492 372 492 380 492 388 492 396 492 404 492 412 492 420 492 428 492 428 484 436 484"/><polyline fill="none" stroke="#2E5266" stroke-width="4" points="412 572 412 564 412 556 412 548 404 548 404 540 404 532 404 524 404 516 404 508 404 500 404 492 404 484 412 484 420 484"/><polyline fill="none" stroke="#566E3D" stroke-width="4" points="396 556 404 556 412 556 420 556"/><polyline fill="none" stroke="#FE9920" stroke-width="4" points="204 564 204 556 204 548 204 540 204 532 204 524 212 524 220 524 220 516 220 508 220 500 228 500 236 500"/><polyline fill="none" stroke="#DB2B39" stroke-width="4" points="100 420 92 420 84 420"/><polyline fill="none" stroke="#566E3D" stroke-width="4" points="564 556 564 548 556 548 556 540 556 532 556 524 556 516 556 508 556 500 556 492 556 484 556 476 556 468 556 460 564 460"/><polyline fill="none" stroke="#566E3D" stroke-width="4" points="228 228 236 228 236 236 236 244 236 252 236 260 236 268 236 276 236 284 236 292 236 300 236 308 236 316 236 324 236 332 236 340 236 348 236 356 236 364 244 364 252 364 260 364 268 364 276 364 284 364 292 364 300 364"/><polyline fill="none" stroke="#FE9920" stroke-width="4" points="172 108 180 108 188 108"/><polyline fill="none" stroke="#566E3D" stroke-width="4" points="292 236 292 228 292 220 292 212 292 204 292 196 292 188 292 180 292 172 292 164 292 156 292 148 292 140 292 132 300 132 308 132 316 132 324 132"/><polyline fill="none" stroke="#DB2B39" stroke-width="4" points="372 108 372 100 372 92 372 84 372 76 380 76 388 76 388 68 396 68 404 68 412 68 420 68 428 68 436 68 444 68 452 68 460 68 460 60 468 60 476 60 484 60"/><polyline fill="none" stroke="#566E3D" stroke-width="4" points="196 92 196 100 188 100 180 100 180 108 180 116 180 124 188 124 196 124 196 132 196 140"/><polyline fill="none" stroke="#FE9920" stroke-width="4" points="356 68 356 60 356 52 364 52 372 52 380 52 388 52 396 52 404 52 412 52 420 52 428 52 436 52 444 52 452 52"/><polyline fill="none" stroke="#566E3D" stroke-width="4" points="284 340 284 348 292 348 300 348 308 348 308 356 308 364 308 372 308 380 308 388 308 396 308 404 308 412 308 420 308 428 308 436 308 444 316 444 324 444 332 444 340 444 348 444 356 444 364 444 372 444 380 444 388 444 396 444 404 444 412 444 420 444 420 452 420 460 420 468 428 468 436 468 444 468 452 468 460 468 460 476 468 476 476 476 484 476 492 476"/><polyline fill="none" stroke="#DB2B39" stroke-width="4" points="20 100 20 92 28 92 36 92 36 84 36 76 36 68 36 60 36 52 36 44 36 36 36 28 36 20 36 12"/><polyline fill="none" stroke="#FE9920" stroke-width="4" points="484 372 492 372 492 364 492 356 492 348 492 340 492 332 492 324 492 316 492 308 492 300 492 292 492 284 492 276 492 268 492 260 492 252 492 244 492 236 492 228 492 220 492 212 492 204 492 196 492 188 492 180 492 172 492 164 500 164 508 164 508 156 508 148 508 140 508 132 508 124 508 116 508 108 508 100 508 92 508 84 508 76 508 68 508 60 508 52 508 44 508 36 508 28 508 20 516 20 516 12"/><polyline fill="none" stroke="#DB2B39" stroke-width="4" points="500 52 500 60 508 60 516 60 524 60 532 60 540 60 548 60 556 60"/><polyline fill="none" stroke="#2E5266" stroke-width="4" points="68 484 68 476 68 468 68 460 68 452 68 444 60 444 52 444 44 444"/><polyline fill="none" stroke="#2E5266" stroke-width="4" points="284 124 284 116 284 108 284 100 284 92 284 84 284 76 292 76 292 68 292 60 284 60"/><polyline fill="none" stroke="#FE9920" stroke-width="4" points="172 148 180 148 180 140 180 132 180 124 172 124 172 116 164 116 164 108 164 100 172 100"/><polyline fill="none" stroke="#DB2B39" stroke-width="4" points="500 156 508 156 516 156 524 156 532 156"/><polyline fill="none" stroke="#DB2B39" stroke-width="4" points="556 372 556 380 556 388 556 396 556 404"/><polyline fill="none" stroke="#FE9920" stroke-width="4" points="468 36 460 36 452 36 444 36 436 36 428 36 420 36 412 36 404 36 396 36 388 36 380 36 372 36 364 36 356 36 348 36 340 36 332 36 332 44 332 52 332 60 332 68 332 76 332 84 332 92 332 100 332 108 332 116 332 124 332 132 332 140 324 140 316 140 308 140 308 148 308 156 308 164 308 172 308 180 308 188 308 196 308 204 308 212 308 220 308 228 308 236 308 244 308 252 308 260 308 268 300 268 292 268 284 268 276 268 268 268 268 276 268 284 268 292 268 300 268 308 268 316 268 324 268 332 268 340 268 348 268 356 268 364 268 372"/><polyline fill="none" stroke="#DB2B39" stroke-width="4" points="140 60 132 60 132 52 132 44 132 36 132 28 132 20 132 12 140 12"/><polyline fill="none" stroke="#FE9920" stroke-width="4" points="380 148 380 156 388 156 396 156 404 156 404 148 404 140 412 140 420 140"/><polyline fill="none" stroke="#2E5266" stroke-width="4" points="532 340 532 348 524 348 516 348 508 348 500 348 500 356 500 364 500 372 500 380 492 380 484 380 476 380 468 380 468 388 468 396 468 404 468 412 468 420 468 428 468 436 468 444 468 452 468 460"/><polyline fill="none" stroke="#FE9920" stroke-width="4" points="372 60 364 60 364 68 364 76 364 84 372 84 380 84 388 84 396 84 404 84 412 84 420 84 428 84 428 92 436 92 444 92 452 92 460 92 460 100 460 108 460 116 468 116 476 116 484 116"/><polyline fill="none" stroke="#DB2B39" stroke-width="4" points="356 564 356 556 356 548 364 548 372 548 372 540 372 532 372 524 372 516 372 508 372 500 372 492 372 484 372 476 364 476"/><polyline fill="none" stroke="#2E5266" stroke-width="4" points="508 548 508 556 516 556 524 556 532 556 532 548"/><polyline fill="none" stroke="#566E3D" stroke-width="4" points="36 564 36 556 36 548 44 548 52 548 60 548 68 548 76 548 76 540 76 532 76 524 76 516 76 508 76 500 84 500 84 492 92 492 100 492 108 492 116 492 116 484 124 484 132 484 140 484 148 484 156 484 164 484 172 484 180 484 188 484 196 484 204 484"/><polyline fill="none" stroke="#DB2B39" stroke-width="4" points="324 452 324 460 332 460 340 460 348 460 348 468 356 468 364 468 372 468 380 468"/><polyline fill="none" stroke="#FE9920" stroke-width="4" points="436 564 436 556 436 548 444 548 444 540 444 532 444 524 444 516 444 508 444 500 444 492 444 484 444 476 452 476"/><polyline fill="none" stroke="#FE9920" stroke-width="4" points="172 132 180 132 188 132"/><polyline fill="none" stroke="#DB2B39" stroke-width="4" points="116 212 116 204 116 196 116 188 116 180 116 172 116 164 116 156 124 156"/><polyline fill="none" stroke="#566E3D" stroke-width="4" points="484 52 492 52 500 52"/><polyline fill="none" stroke="#DB2B39" stroke-width="4" points="252 60 252 68 252 76 252 84 252 92 252 100 252 108 252 116 252 124 252 132 252 140 252 148 252 156 252 164 252 172 252 180 252 188 252 196 252 204 252 212 252 220 252 228 260 228 268 228 276 228 284 228 292 228 300 228 300 236 308 236 316 236 316 244 316 252 316 260 324 260 332 260 340 260 348 260 356 260"/><polyline fill="none" stroke="#FE9920" stroke-width="4" points="228 212 228 220 236 220 244 220 252 220 260 220 268 220 276 220 284 220 292 220 300 220 308 220 316 220 316 228 324 228 332 228 340 228 348 228 356 228 364 228 372 228 380 228 388 228 396 228 404 228 412 228 420 228 428 228 436 228 444 228 452 228 460 228 468 228 476 228 484 228 492 228 500 228 508 228 516 228 516 236"/><polyline fill="none" stroke="#FE9920" stroke-width="4" points="300 356 292 356 284 356 276 356 276 364 276 372 276 380 268 380 268 388 268 396 268 404 268 412"/><polyline fill="none" stroke="#DB2B39" stroke-width="4" points="452 212 452 204 452 196 452 188 460 188 460 180 460 172 460 164 460 156 460 148 460 140 460 132 460 124 468 124 476 124 484 124 492 124 492 116 492 108 492 100 492 92 484 92"/><polyline fill="none" stroke="#566E3D" stroke-width="4" points="300 260 300 252"/><polyline fill="none" stroke="#566E3D" stroke-width="4" points="188 92 188 100 196 100 204 100 212 100 220 100 220 108 220 116 220 124 220 132 212 132 212 140 212 148 204 148 196 148 188 148 188 140"/><polyline fill="none" stroke="#DB2B39" stroke-width="4" points="172 564 172 556 180 556 188 556 188 564 196 564 204 564"/><polyline fill="none" stroke="#566E3D" stroke-width="4" points="452 100 460 100 468 100"/><polyline fill="none" stroke="#DB2B39" stroke-width="4" points="212 220 204 220 204 228 204 236 204 244 204 252 204 260 204 268 204 276 212 276"/><polyline fill="none" stroke="#2E5266" stroke-width="4" points="308 532 308 524 316 524 324 524 324 516 324 508 332 508 332 500 332 492 332 484 332 476 332 468 332 460 332 452 332 444 332 436 332 428 332 420 332 412 332 404 332 396 332 388 332 380 332 372 332 364 332 356 332 348 332 340 332 332 332 324 332 316 332 308 332 300 332 292 340 292 348 292 356 292 364 292 372 292 380 292"/><polyline fill="none" stroke="#DB2B39" stroke-width="4" points="228 196 228 204 236 204 236 212 236 220 236 228 236 236 228 236 228 244"/><polyline fill="none" stroke="#2E5266" stroke-width="4" points="492 484 500 484 508 484 516 484 524 484 532 484"/><polyline fill="none" stroke="#DB2B39" stroke-width="4" points="452 556 460 556 468 556 476 556"/><polyline fill="none" stroke="#2E5266" stroke-width="4" points="28 420 28 428 36 428 44 428 52 428 60 428 68 428 76 428 84 428 92 428 100 428 108 428 108 436 108 444 100 444"/><polyline fill="none" stroke="#566E3D" stroke-width="4" points="92 436 92 428 100 428 108 428 116 428 116 436 124 436 132 436 140 436 140 444 148 444"/><polyline fill="none" stroke="#566E3D" stroke-width="4" points="500 44 492 44 492 52 492 60 492 68 492 76 492 84 500 84 500 92"/><polyline fill="none" stroke="#DB2B39" stroke-width="4" points="484 300 484 292 484 284 492 284 500 284 508 284 516 284"/><polyline fill="none" stroke="#FE9920" stroke-width="4" points="532 156 532 148 532 140 532 132 532 124 532 116 532 108 532 100 532 92 532 84 532 76 532 68 532 60 532 52 532 44 532 36 532 28 532 20 532 12"/><polyline fill="none" stroke="#DB2B39" stroke-width="4" points="300 372 308 372 316 372 316 364 316 356 324 356 332 356 340 356"/><polyline fill="none" stroke="#DB2B39" stroke-width="4" points="172 92 172 84 172 76 164 76 164 68 156 68 156 60 156 52 156 44 164 44"/><polyline fill="none" stroke="#DB2B39" stroke-width="4" points="140 180 148 180 156 180 164 180"/><polyline fill="none" stroke="#DB2B39" stroke-width="4" points="308 492 308 484 316 484 316 476 324 476 332 476 340 476 348 476 356 476"/><polyline fill="none" stroke="#DB2B39" stroke-width="4" points="380 564 380 556 380 548 388 548 388 540 388 532 388 524 388 516 388 508 388 500 388 492 388 484 388 476 396 476"/><polyline fill="none" stroke="#2E5266" stroke-width="4" points="364 356 364 348 372 348 380 348 388 348 396 348 404 348 412 348 420 348 428 348 436 348 444 348 452 348 460 348 468 348"/><polyline fill="none" stroke="#FE9920" stroke-width="4" points="108 260 116 260 124 260 132 260 140 260 148 260 156 260 164 260"/><polyline fill="none" stroke="#566E3D" stroke-width="4" points="28 548 36 548 36 540 36 532 36 524 36 516 36 508 36 500 44 500 52 500 60 500"/><polyline fill="none" stroke="#566E3D" stroke-width="4" points="508 564 500 564 500 556 500 548 500 540 500 532 500 524 500 516 500 508 500 500 500 492 500 484 500 476 500 468 500 460 500 452 508 452"/><polyline fill="none" stroke="#566E3D" stroke-width="4" points="380 292 380 284 380 276 372 276 364 276 356 276"/><polyline fill="none" stroke="#FE9920" stroke-width="4" points="212 252 220 252 220 260 220 268 220 276 220 284 220 292 220 300 220 308 220 316 220 324 220 332 220 340 220 348 220 356 220 364 220 372 220 380 220 388 220 396 220 404 228 404 236 404 244 404 252 404 260 404 268 404 276 404 276 412 284 412 292 412 300 412 308 412 316 412 324 412 332 412 340 412 348 412 356 412 364 412 372 412 380 412 388 412 396 412 404 412 412 412 420 412 428 412"/><polyline fill="none" stroke="#FE9920" stroke-width="4" points="84 12 84 20 84 28 84 36 84 44 84 52 84 60 84 68 84 76 84 84 84 92 84 100 84 108 84 116 84 124 84 132 84 140 84 148 84 156 84 164 84 172 84 180 84 188 84 196 84 204 84 212 84 220 84 228 84 236 92 236 100 236 108 236 116 236"/><polyline fill="none" stroke="#DB2B39" stroke-width="4" points="308 76 316 76 324 76 332 76 340 76"/><polyline fill="none" stroke="#566E3D" stroke-width="4" points="364 532 364 524 372 524 380 524 388 524 388 532 396 532"/><polyline fill="none" stroke="#566E3D" stroke-width="4" points="500 196 500 188 500 180 500 172 508 172 516 172 516 164 516 156 516 148 516 140 516 132 516 124 516 116 516 108 516 100 516 92 516 84 516 76 516 68 508 68 500 68 492 68 484 68"/><polyline fill="none" stroke="#566E3D" stroke-width="4" points="212 172 220 172 220 164 220 156 220 148 220 140 220 132 220 124 212 124"/><polyline fill="none" stroke="#566E3D" stroke-width="4" points="140 108 140 100 140 92 140 84 140 76 140 68 132 68 132 60 132 52 140 52"/><polyline fill="none" stroke="#566E3D" stroke-width="4" points="396 244 396 252 404 252 412 252 420 252"/><polyline fill="none" stroke="#DB2B39" stroke-width="4" points="20 372 20 380 20 388 20 396 20 404 20 412 20 420 20 428 20 436 20 444 20 452 20 460 20 468 20 476 20 484 20 492 20 500 20 508 20 516 20 524 20 532 20 540 20 548 20 556 28 556 36 556 44 556"/><polyline fill="none" stroke="#566E3D" stroke-width="4" points="492 548 492 540 500 540 508 540 516 540 516 548 524 548"/><polyline fill="none" stroke="#DB2B39" stroke-width="4" points="468 484 468 476 468 468 476 468 476 460 476 452 476 444 476 436 476 428 476 420 476 412 476 404 476 396 476 388 484 388 492 388 500 388 508 388 508 380 508 372 508 364 516 364 524 364"/><polyline fill="none" stroke="#566E3D" stroke-width="4" points="476 332 476 324 484 324 492 324 500 324 508 324 516 324 524 324 532 324 540 324 540 332"/><polyline fill="none" stroke="#566E3D" stroke-width="4" points="84 444 84 452 92 452 100 452 108 452 116 452 116 444 124 444 124 436 124 428 124 420 124 412 124 404 124 396 124 388 124 380 124 372 124 364 124 356 124 348 124 340 124 332 124 324 124 316 124 308 124 300 132 300 140 300 148 300 156 300 164 300 172 300"/><polyline fill="none" stroke="#DB2B39" stroke-width="4" points="92 12 92 20 92 28 92 36 92 44 92 52 92 60 92 68 92 76 92 84 92 92 92 100 92 108 92 116 92 124 92 132 92 140 92 148 92 156 92 164 92 172 92 180 92 188 92 196 92 204 92 212 100 212 108 212 116 212"/><polyline fill="none" stroke="#2E5266" stroke-width="4" points="356 244 356 252 364 252 364 260 364 268 372 268 380 268 388 268 388 276 388 284 388 292 388 300 388 308 396 308 404 308"/><polyline fill="none" stroke="#566E3D" stroke-width="4" points="380 532 380 524 380 516 388 516 396 516 404 516 412 516 412 524 412 532"/><polyline fill="none" stroke="#566E3D" stroke-width="4" points="212 564 220 564 228 564 236 564 244 564 252 564"/><polyline fill="none" stroke="#FE9920" stroke-width="4" points="476 548 484 548 484 556 492 556 500 556 500 548 508 548"/><polyline fill="none" stroke="#566E3D" stroke-width="4" points="164 252 164 244 164 236 156 236 156 228 156 220 156 212 156 204 156 196 164 196"/><polyline fill="none" stroke="#FE9920" stroke-width="4" points="68 12 68 20 68 28 68 36 68 44 68 52 68 60 68 68 68 76 68 84 68 92 68 100 68 108 68 116 68 124 68 132 68 140 68 148 68 156 68 164 68 172 68 180 68 188 68 196 68 204 68 212 68 220 68 228 68 236 68 244 68 252 68 260 68 268 68 276 68 284 76 284 84 284 92 284 100 284"/><polyline fill="none" stroke="#DB2B39" stroke-width="4" points="396 172 396 180 396 188 396 196 396 204 396 212 396 220 396 228 396 236 404 236 404 244 412 244 420 244 428 244 428 252 428 260 428 268 428 276 428 284 428 292 428 300 436 300 444 300 452 300 460 300 468 300"/><polyline fill="none" stroke="#566E3D" stroke-width="4" points="468 108 476 108 484 108 484 100 492 100 500 100 508 100 516 100 524 100 532 100 540 100 548 100 556 100"/><polyline fill="none" stroke="#FE9920" stroke-width="4" points="108 420 108 428 108 436 108 444 108 452 108 460 108 468 108 476"/><polyline fill="none" stroke="#DB2B39" stroke-width="4" points="268 188 268 196 268 204 268 212 268 220 268 228 268 236 268 244 276 244 284 244 292 244"/><polyline fill="none" stroke="#FE9920" stroke-width="4" points="548 108 548 100 548 92 548 84 548 76 548 68 548 60 548 52 548 44 548 36 548 28 548 20 548 12"/><polyline fill="none" stroke="#DB2B39" stroke-width="4" points="132 228 140 228 148 228 156 228 164 228"/><polyline fill="none" stroke="#FE9920" stroke-width="4" points="324 132 324 124 324 116 324 108 324 100 324 92 324 84 332 84 340 84 348 84 348 76 348 68 348 60 348 52 348 44 348 36 348 28 348 20 356 20 364 20 372 20 380 20 388 20 396 20 404 20 412 20 420 20 428 20 436 20 444 20 452 20 460 20 460 12 468 12"/><polyline fill="none" stroke="#FE9920" stroke-width="4" points="268 124 260 124 260 132 260 140 260 148 260 156 260 164 260 172 260 180 260 188 260 196 260 204 260 212 260 220 260 228 260 236 260 244 260 252 260 260 260 268 260 276 260 284 260 292 260 300 260 308 260 316 260 324 260 332 260 340 260 348 260 356 260 364 260 372 260 380 260 388 260 396 260 404 260 412 260 420 260 428 260 436 260 444 260 452 268 452 268 460 268 468 268 476 268 484 268 492 268 500 268 508 276 508 284 508 292 508 300 508 308 508 316 508 316 516 324 516 332 516 332 524 332 532 340 532 348 532 348 540 356 540"/><polyline fill="none" stroke="#2E5266" stroke-width="4" points="284 44 284 36 284 28 284 20 292 20 300 20 308 20 316 20 324 20 332 20 340 20 340 12 348 12 356 12"/><polyline fill="none" stroke="#FE9920" stroke-width="4" points="84 380 84 388 84 396 84 404"/><polyline fill="none" stroke="#FE9920" stroke-width="4" points="524 564 532 564 540 564 540 556 540 548 540 540 540 532 540 524 540 516 540 508 540 500 540 492 540 484 540 476 532 476"/><polyline fill="none" stroke="#FE9920" stroke-width="4" points="172 60 180 60 188 60"/><polyline fill="none" stroke="#2E5266" stroke-width="4" points="212 548 212 540 212 532 220 532 228 532 228 524 228 516 228 508 228 500 228 492 228 484 228 476 236 476"/><polyline fill="none" stroke="#FE9920" stroke-width="4" points="140 164 148 164 156 164 164 164"/><polyline fill="none" stroke="#566E3D" stroke-width="4" points="452 540 460 540 468 540 476 540"/><polyline fill="none" stroke="#FE9920" stroke-width="4" points="484 276 476 276 476 284 476 292 476 300 476 308 468 308 468 316 468 324 468 332 468 340 476 340 476 348 476 356 476 364 484 364"/><polyline fill="none" stroke="#DB2B39" stroke-width="4" points="164 148 164 140 172 140"/><polyline fill="none" stroke="#2E5266" stroke-width="4" points="44 188 44 180 44 172 44 164 52 164 52 156 52 148 52 140 52 132 52 124 52 116 52 108 52 100 52 92 52 84 52 76 52 68 52 60 52 52 52 44 52 36 52 28 52 20 44 20 44 12"/><polyline fill="none" stroke="#2E5266" stroke-width="4" points="380 60 388 60 396 60 396 68 396 76 404 76 412 76 420 76"/><polyline fill="none" stroke="#566E3D" stroke-width="4" points="356 284 356 292 356 300 356 308 356 316 356 324 356 332 356 340 356 348 356 356 356 364 356 372 356 380 356 388 356 396 356 404 356 412 356 420 356 428 356 436 356 444 356 452 364 452 372 452 372 460 380 460 388 460 388 468 396 468 404 468 412 468"/><polyline fill="none" stroke="#2E5266" stroke-width="4" points="212 204 204 204 196 204 196 212 196 220 196 228 196 236 196 244 204 244 204 252 204 260 212 260"/><polyline fill="none" stroke="#DB2B39" stroke-width="4" points="100 436 108 436 116 436 116 444 116 452 116 460 116 468 116 476 116 484 108 484"/><polyline fill="none" stroke="#2E5266" stroke-width="4" points="412 540 420 540 428 540 436 540"/><polyline fill="none" stroke="#2E5266" stroke-width="4" points="548 556 548 548 548 540 556 540 556 532 564 532 564 524 564 516 564 508 564 500 564 492 564 484 564 476 564 468"/><polyline fill="none" stroke="#DB2B39" stroke-width="4" points="124 12 124 20 124 28 124 36 124 44 124 52 124 60 124 68 124 76 124 84 124 92 124 100 124 108 124 116 132 116 140 116"/><polyline fill="none" stroke="#566E3D" stroke-width="4" points="340 44 340 36 340 28 332 28 332 20 332 12"/><polyline fill="none" stroke="#DB2B39" stroke-width="4" points="380 108 380 100 380 92 388 92 396 92 404 92 412 92 420 92"/><polyline fill="none" stroke="#566E3D" stroke-width="4" points="484 116 492 116 500 116"/><polyline fill="none" stroke="#FE9920" stroke-width="4" points="180 564 180 556 188 556 188 548 188 540 188 532 188 524 188 516 188 508 196 508 204 508"/><polyline fill="none" stroke="#566E3D" stroke-width="4" points="356 540 356 548 364 548 372 548 372 540 380 540"/><polyline fill="none" stroke="#DB2B39" stroke-width="4" points="460 372 460 364 460 356 468 356 476 356 484 356 484 348"/><polyline fill="none" stroke="#2E5266" stroke-width="4" points="396 148 396 156 396 164 404 164 404 172"/><polyline fill="none" stroke="#FE9920" stroke-width="4" points="420 548 428 548 436 548 444 548 452 548"/><polyline fill="none" stroke="#2E5266" stroke-width="4" points="28 172 28 164 28 156 28 148 28 140 28 132 28 124 28 116 28 108 36 108 36 100 44 100 44 92 44 84 44 76 44 68 44 60 44 52 44 44 44 36 44 28 44 20 52 20 52 12"/><polyline fill="none" stroke="#2E5266" stroke-width="4" points="468 148 468 140 468 132 460 132 452 132 452 124 444 124 444 116 444 108 444 100 444 92 452 92 460 92 468 92"/><polyline fill="none" stroke="#2E5266" stroke-width="4" points="92 444 92 452 84 452 76 452 76 444 76 436 68 436 68 428 68 420 68 412 68 404 68 396 68 388 68 380 68 372 68 364 68 356 68 348 68 340 68 332 68 324 68 316 76 316 84 316 92 316 100 316 108 316"/><polyline fill="none" stroke="#DB2B39" stroke-width="4" points="228 108 236 108 236 116 236 124 236 132 236 140 236 148 244 148 252 148 260 148 268 148 276 148 284 148 292 148 300 148 308 148 316 148 324 148 332 148 340 148 348 148 356 148"/><polyline fill="none" stroke="#DB2B39" stroke-width="4" points="196 252 196 244 196 236 204 236 212 236 212 228 220 228 228 228"/><polyline fill="none" stroke="#FE9920" stroke-width="4" points="196 276 196 268 188 268 180 268 172 268"/><polyline fill="none" stroke="#2E5266" stroke-width="4" points="28 84 36 84 36 92 36 100 36 108 36 116 36 124 36 132 36 140 36 148 36 156 44 156"/><polyline fill="none" stroke="#DB2B39" stroke-width="4" points="108 484 100 484 100 476 100 468 100 460 108 460 116 460 124 460 124 452 124 444 124 436 124 428 124 420 116 420 116 412 108 412 100 412 100 420"/><polyline fill="none" stroke="#566E3D" stroke-width="4" points="212 572 220 572 228 572 236 572 244 572 252 572"/><polyline fill="none" stroke="#FE9920" stroke-width="4" points="212 156 204 156 204 164 204 172 204 180 204 188 204 196 212 196 212 204"/><polyline fill="none" stroke="#FE9920" stroke-width="4" points="452 108 460 108 468 108"/><polyline fill="none" stroke="#DB2B39" stroke-width="4" points="524 12 524 20 524 28 524 36 524 44 524 52 524 60 524 68 524 76 524 84 524 92 524 100 524 108 524 116 524 124 524 132 524 140 524 148 532 148 540 148 548 148"/><polyline fill="none" stroke="#566E3D" stroke-width="4" points="532 388 532 380 532 372 532 364 532 356 524 356 524 348 524 340 524 332 524 324 524 316 524 308 516 308 508 308 500 308"/><polyline fill="none" stroke="#566E3D" stroke-width="4" points="188 60 196 60"/><polyline fill="none" stroke="#FE9920" stroke-width="4" points="172 196 172 188 180 188 180 180 180 172 180 164 180 156 172 156 172 148"/><polyline fill="none" stroke="#DB2B39" stroke-width="4" points="204 500 204 492 212 492 212 484 220 484 228 484 236 484 244 484 252 484"/><polyline fill="none" stroke="#FE9920" stroke-width="4" points="172 252 172 244 172 236 172 228 172 220 164 220 164 212 164 204 172 204"/><polyline fill="none" stroke="#2E5266" stroke-width="4" points="308 516 308 508 316 508 324 508 332 508 340 508 340 500 348 500 356 500 364 500 372 500 380 500 380 492 380 484 380 476 388 476 388 468 388 460 396 460 404 460 412 460"/><polyline fill="none" stroke="#566E3D" stroke-width="4" points="500 116 500 124 500 132 492 132 484 132 484 140 484 148 476 148 476 156 468 156 468 164 468 172 468 180 468 188 468 196 468 204 468 212 468 220 468 228 468 236 468 244 468 252 468 260 468 268 468 276 468 284"/><polyline fill="none" stroke="#DB2B39" stroke-width="4" points="196 156 196 148 204 148 212 148 220 148 228 148 228 156"/><polyline fill="none" stroke="#FE9920" stroke-width="4" points="228 36 236 36 244 36 252 36 260 36 268 36 276 36 284 36 292 36 292 44 292 52 300 52 300 60 300 68 300 76 300 84 300 92 300 100 300 108 300 116 300 124 300 132 300 140 300 148 300 156 300 164 300 172 300 180 300 188 300 196 300 204 300 212 300 220 300 228 300 236 300 244"/><polyline fill="none" stroke="#DB2B39" stroke-width="4" points="468 100 476 100 484 100 484 108 492 108 500 108 508 108 516 108 524 108 532 108 540 108 540 116 548 116 556 116"/><polyline fill="none" stroke="#2E5266" stroke-width="4" points="540 204 540 196"/><polyline fill="none" stroke="#FE9920" stroke-width="4" points="44 236 44 228 44 220 44 212 52 212 60 212 68 212 76 212"/><polyline fill="none" stroke="#FE9920" stroke-width="4" points="492 404 492 412 492 420 492 428 492 436 492 444 492 452 492 460 492 468"/><polyline fill="none" stroke="#FE9920" stroke-width="4" points="500 36 492 36 484 36 476 36 468 36"/><polyline fill="none" stroke="#FE9920" stroke-width="4" points="364 556 356 556 348 556 348 548 348 540 348 532 348 524 348 516 348 508 348 500 348 492 348 484 348 476 348 468 348 460 356 460 364 460"/><polyline fill="none" stroke="#2E5266" stroke-width="4" points="172 164 180 164 188 164"/><polyline fill="none" stroke="#2E5266" stroke-width="4" points="252 572 260 572 260 564 260 556 260 548 260 540 268 540 276 540 284 540 292 540 300 540 308 540"/><polyline fill="none" stroke="#DB2B39" stroke-width="4" points="508 236 508 228 508 220 508 212 508 204 508 196 508 188 508 180 516 180 524 180 524 172 524 164 532 164 540 164 540 156 540 148 540 140 540 132 540 124 540 116 540 108 540 100 540 92 540 84 540 76 540 68 540 60 540 52 540 44 540 36 540 28 540 20 540 12 540 4 532 4 524 4 516 4 508 4 508 12"/><polyline fill="none" stroke="#DB2B39" stroke-width="4" points="340 548 348 548 356 548 364 548 364 540"/><polyline fill="none" stroke="#FE9920" stroke-width="4" points="532 204 532 212 532 220 532 228 532 236 532 244 532 252 532 260 532 268 532 276 532 284 540 284"/><polyline fill="none" stroke="#2E5266" stroke-width="4" points="196 140 204 140 212 140 220 140 228 140"/><polyline fill="none" stroke="#566E3D" stroke-width="4" points="356 268 364 268 364 276 364 284 364 292 364 300 372 300 380 300 388 300 396 300 404 300"/><polyline fill="none" stroke="#566E3D" stroke-width="4" points="228 324 228 332 228 340 228 348"/><polyline fill="none" stroke="#FE9920" stroke-width="4" points="380 68 388 68 388 60 396 60 404 60 412 60 420 60"/><polyline fill="none" stroke="#2E5266" stroke-width="4" points="452 180 460 180 468 180 476 180 484 180"/><polyline fill="none" stroke="#2E5266" stroke-width="4" points="180 548 188 548 196 548 204 548 212 548"/><polyline fill="none" stroke="#DB2B39" stroke-width="4" points="524 532 524 524 532 524 540 524 548 524 548 532"/><polyline fill="none" stroke="#2E5266" stroke-width="4" points="28 364 28 372 28 380 28 388 28 396 28 404"/><polyline fill="none" stroke="#FE9920" stroke-width="4" points="372 68 364 68 364 60 364 52 364 44 372 44 380 44 388 44 396 44 404 44 412 44 420 44 428 44 428 52 428 60 436 60 444 60 452 60"/><polyline fill="none" stroke="#DB2B39" stroke-width="4" points="196 116 204 116 212 116 220 116 228 116"/><polyline fill="none" stroke="#DB2B39" stroke-width="4" points="204 580 212 580 220 580 220 572 220 564 220 556 220 548 220 540 228 540 236 540 236 532 236 524 236 516 244 516 244 508 244 500 244 492 244 484 244 476 244 468 244 460 244 452 244 444 244 436 244 428 244 420 244 412 244 404 244 396 244 388 244 380 244 372 244 364 244 356 244 348 244 340 244 332 244 324 244 316 244 308 244 300 244 292 244 284 244 276 244 268 244 260 244 252 244 244 244 236 244 228 244 220 244 212 244 204 244 196 244 188 244 180 244 172 244 164 244 156 244 148 244 140 244 132 244 124 244 116 244 108 244 100 244 92 244 84 244 76 244 68 252 68 260 68 260 60 260 52 260 44 260 36 260 28 268 28 276 28 284 28 292 28 300 28 300 36 300 44"/><polyline fill="none" stroke="#DB2B39" stroke-width="4" points="356 148 356 140 356 132 364 132 372 132 380 132 388 132 396 132 404 132 412 132 420 132 420 124 420 116 420 108 420 100 428 100 436 100 444 100 452 100"/><polyline fill="none" stroke="#2E5266" stroke-width="4" points="476 532 476 524 484 524 492 524 500 524 508 524 508 532"/><polyline fill="none" stroke="#2E5266" stroke-width="4" points="396 524 404 524 412 524 420 524"/><polyline fill="none" stroke="#2E5266" stroke-width="4" points="532 540 540 540 548 540 556 540 564 540"/><polyline fill="none" stroke="#566E3D" stroke-width="4" points="196 172 196 180 204 180 212 180 220 180 228 180 228 172"/><polyline fill="none" stroke="#566E3D" stroke-width="4" points="188 260 196 260"/><polyline fill="none" stroke="#566E3D" stroke-width="4" points="12 548 12 540 20 540 28 540"/><polyline fill="none" stroke="#2E5266" stroke-width="4" points="396 116 396 124 396 132 396 140"/><polyline fill="none" stroke="#566E3D" stroke-width="4" points="212 284 220 284 228 284 228 276 228 268 228 260 228 252 236 252 244 252 252 252 252 244 252 236 260 236 268 236 276 236 276 228 276 220 276 212 276 204 276 196 276 188 276 180 276 172 284 172"/><polyline fill="none" stroke="#DB2B39" stroke-width="4" points="372 148 372 156 380 156 388 156 396 156 404 156 412 156 412 148 420 148 428 148 428 140 428 132 428 124 428 116 436 116 444 116 452 116"/><polyline fill="none" stroke="#2E5266" stroke-width="4" points="244 60 244 52 252 52 260 52 268 52 276 52 284 52"/><polyline fill="none" stroke="#2E5266" stroke-width="4" points="212 36 212 28 212 20 212 12 220 12 228 12 236 12 244 12 252 12 260 12 268 12 276 12 284 12 292 12 300 12 308 12 308 20 308 28 308 36 308 44 316 44 324 44"/><polyline fill="none" stroke="#DB2B39" stroke-width="4" points="148 60 156 60 164 60"/><polyline fill="none" stroke="#2E5266" stroke-width="4" points="452 12 452 20 452 28 460 28 468 28 476 28 484 28 492 28 500 28 508 28 516 28 516 36 516 44 516 52 524 52 532 52 540 52 548 52 556 52 564 52 564 60 564 68 564 76 564 84 564 92 564 100 564 108 564 116 564 124 564 132 564 140 564 148 564 156 564 164 564 172 564 180 564 188 564 196 564 204 564 212 564 220 564 228 564 236 564 244 564 252 564 260 564 268 564 276 564 284 564 292 564 300 564 308 564 316 564 324 564 332 564 340 564 348 564 356 564 364 564 372 564 380 564 388 564 396 564 404 564 412 556 412 548 412 548 420 548 428 548 436 548 444 548 452 548 460 548 468"/><polyline fill="none" stroke="#2E5266" stroke-width="4" points="508 532 516 532 516 524 524 524 532 524 532 532"/><polyline fill="none" stroke="#566E3D" stroke-width="4" points="28 340 28 348 28 356 36 356 36 364 36 372 36 380 36 388 36 396 36 404"/><polyline fill="none" stroke="#566E3D" stroke-width="4" points="492 532 492 524 492 516 500 516 508 516 516 516 516 524 516 532 524 532"/><polyline fill="none" stroke="#FE9920" stroke-width="4" points="108 476 116 476 124 476 124 468 132 468 140 468 140 460 140 452 148 452 156 452 156 444 156 436 156 428 156 420 164 420 172 420 180 420 188 420 196 420 204 420 212 420 220 420 228 420 236 420 244 420 252 420 260 420 268 420 276 420 284 420 284 412 284 404 284 396 284 388 284 380 292 380 300 380 308 380 316 380 324 380 324 372 324 364 332 364 340 364 348 364 348 356 348 348 348 340 348 332 348 324 348 316 356 316 364 316 372 316 380 316 388 316 396 316"/><polyline fill="none" stroke="#FE9920" stroke-width="4" points="228 172 228 164 236 164 236 156 244 156 252 156 260 156 268 156 276 156 284 156 292 156 300 156 308 156 316 156 324 156 332 156 340 156 348 156 356 156"/><polyline fill="none" stroke="#FE9920" stroke-width="4" points="340 540 340 532 340 524 340 516 340 508 340 500 340 492 340 484 340 476 340 468"/><circle cx="68" cy="12" r="4" fill="#000" stroke="none"/><circle cx="100" cy="284" r="4" fill="#000" stroke="none"/><circle cx="28" cy="84" r="4" fill="#000" stroke="none"/><circle cx="44" cy="156" r="4" fill="#000" stroke="none"/><circle cx="84" cy="12" r="4" fill="#000" stroke="none"/><circle cx="116" cy="236" r="4" fill="#000" stroke="none"/><circle cx="92" cy="12" r="4" fill="#000" stroke="none"/><circle cx="116" cy="212" r="4" fill="#000" stroke="none"/><circle cx="20" cy="100" r="4" fill="#000" stroke="none"/><circle cx="36" cy="12" r="4" fill="#000" stroke="none"/><circle cx="28" cy="100" r="4" fill="#000" stroke="none"/><circle cx="28" cy="12" r="4" fill="#000" stroke="none"/><circle cx="124" cy="12" r="4" fill="#000" stroke="none"/><circle cx="140" cy="116" r="4" fill="#000" stroke="none"/><circle cx="60" cy="124" r="4" fill="#000" stroke="none"/><circle cx="60" cy="180" r="4" fill="#000" stroke="none"/><circle cx="140" cy="60" r="4" fill="#000" stroke="none"/><circle cx="140" cy="12" r="4" fill="#000" stroke="none"/><circle cx="148" cy="60" r="4" fill="#000" stroke="none"/><circle cx="164" cy="60" r="4" fill="#000" stroke="none"/><circle cx="140" cy="108" r="4" fill="#000" stroke="none"/><circle cx="140" cy="52" r="4" fill="#000" stroke="none"/><circle cx="28" cy="172" r="4" fill="#000" stroke="none"/><circle cx="52" cy="12" r="4" fill="#000" stroke="none"/><circle cx="172" cy="68" r="4" fill="#000" stroke="none"/><circle cx="188" cy="68" r="4" fill="#000" stroke="none"/><circle cx="172" cy="60" r="4" fill="#000" stroke="none"/><circle cx="188" cy="60" r="4" fill="#000" stroke="none"/><circle cx="172" cy="92" r="4" fill="#000" stroke="none"/><circle cx="164" cy="44" r="4" fill="#000" stroke="none"/><circle cx="44" cy="188" r="4" fill="#000" stroke="none"/><circle cx="44" cy="12" r="4" fill="#000" stroke="none"/><circle cx="172" cy="108" r="4" fill="#000" stroke="none"/><circle cx="188" cy="108" r="4" fill="#000" stroke="none"/><circle cx="188" cy="60" r="4" fill="#000" stroke="none"/><circle cx="196" cy="60" r="4" fill="#000" stroke="none"/><circle cx="196" cy="60" r="4" fill="#000" stroke="none"/><circle cx="228" cy="60" r="4" fill="#000" stroke="none"/><circle cx="188" cy="92" r="4" fill="#000" stroke="none"/><circle cx="188" cy="140" r="4" fill="#000" stroke="none"/><circle cx="164" cy="148" r="4" fill="#000" stroke="none"/><circle cx="172" cy="140" r="4" fill="#000" stroke="none"/><circle cx="212" cy="36" r="4" fill="#000" stroke="none"/><circle cx="324" cy="44" r="4" fill="#000" stroke="none"/><circle cx="196" cy="92" r="4" fill="#000" stroke="none"/><circle cx="196" cy="140" r="4" fill="#000" stroke="none"/><circle cx="140" cy="164" r="4" fill="#000" stroke="none"/><circle cx="164" cy="164" r="4" fill="#000" stroke="none"/><circle cx="172" cy="132" r="4" fill="#000" stroke="none"/><circle cx="188" cy="132" r="4" fill="#000" stroke="none"/><circle cx="196" cy="116" r="4" fill="#000" stroke="none"/><circle cx="228" cy="116" r="4" fill="#000" stroke="none"/><circle cx="172" cy="148" r="4" fill="#000" stroke="none"/><circle cx="172" cy="100" r="4" fill="#000" stroke="none"/><circle cx="140" cy="180" r="4" fill="#000" stroke="none"/><circle cx="164" cy="180" r="4" fill="#000" stroke="none"/><circle cx="228" cy="36" r="4" fill="#000" stroke="none"/><circle cx="300" cy="244" r="4" fill="#000" stroke="none"/><circle cx="196" cy="140" r="4" fill="#000" stroke="none"/><circle cx="228" cy="140" r="4" fill="#000" stroke="none"/><circle cx="116" cy="212" r="4" fill="#000" stroke="none"/><circle cx="124" cy="156" r="4" fill="#000" stroke="none"/><circle cx="44" cy="236" r="4" fill="#000" stroke="none"/><circle cx="76" cy="212" r="4" fill="#000" stroke="none"/><circle cx="172" cy="164" r="4" fill="#000" stroke="none"/><circle cx="188" cy="164" r="4" fill="#000" stroke="none"/><circle cx="212" cy="108" r="4" fill="#000" stroke="none"/><circle cx="212" cy="164" r="4" fill="#000" stroke="none"/><circle cx="196" cy="156" r="4" fill="#000" stroke="none"/><circle cx="228" cy="156" r="4" fill="#000" stroke="none"/><circle cx="228" cy="108" r="4" fill="#000" stroke="none"/><circle cx="356" cy="148" r="4" fill="#000" stroke="none"/><circle cx="244" cy="60" r="4" fill="#000" stroke="none"/><circle cx="284" cy="52" r="4" fill="#000" stroke="none"/><circle cx="172" cy="180" r="4" fill="#000" stroke="none"/><circle cx="188" cy="180" r="4" fill="#000" stroke="none"/><circle cx="172" cy="196" r="4" fill="#000" stroke="none"/><circle cx="172" cy="148" r="4" fill="#000" stroke="none"/><circle cx="196" cy="172" r="4" fill="#000" stroke="none"/><circle cx="228" cy="172" r="4" fill="#000" stroke="none"/><circle cx="252" cy="60" r="4" fill="#000" stroke="none"/><circle cx="356" cy="260" r="4" fill="#000" stroke="none"/><circle cx="132" cy="228" r="4" fill="#000" stroke="none"/><circle cx="164" cy="228" r="4" fill="#000" stroke="none"/><circle cx="212" cy="156" r="4" fill="#000" stroke="none"/><circle cx="212" cy="204" r="4" fill="#000" stroke="none"/><circle cx="212" cy="172" r="4" fill="#000" stroke="none"/><circle cx="212" cy="124" r="4" fill="#000" stroke="none"/><circle cx="172" cy="212" r="4" fill="#000" stroke="none"/><circle cx="188" cy="212" r="4" fill="#000" stroke="none"/><circle cx="188" cy="204" r="4" fill="#000" stroke="none"/><circle cx="188" cy="356" r="4" fill="#000" stroke="none"/><circle cx="108" cy="260" r="4" fill="#000" stroke="none"/><circle cx="164" cy="260" r="4" fill="#000" stroke="none"/><circle cx="228" cy="172" r="4" fill="#000" stroke="none"/><circle cx="356" cy="156" r="4" fill="#000" stroke="none"/><circle cx="284" cy="44" r="4" fill="#000" stroke="none"/><circle cx="356" cy="12" r="4" fill="#000" stroke="none"/><circle cx="268" cy="124" r="4" fill="#000" stroke="none"/><circle cx="356" cy="540" r="4" fill="#000" stroke="none"/><circle cx="164" cy="252" r="4" fill="#000" stroke="none"/><circle cx="164" cy="196" r="4" fill="#000" stroke="none"/><circle cx="228" cy="196" r="4" fill="#000" stroke="none"/><circle cx="228" cy="244" r="4" fill="#000" stroke="none"/><circle cx="212" cy="204" r="4" fill="#000" stroke="none"/><circle cx="212" cy="260" r="4" fill="#000" stroke="none"/><circle cx="172" cy="252" r="4" fill="#000" stroke="none"/><circle cx="172" cy="204" r="4" fill="#000" stroke="none"/><circle cx="212" cy="220" r="4" fill="#000" stroke="none"/><circle cx="212" cy="276" r="4" fill="#000" stroke="none"/><circle cx="284" cy="124" r="4" fill="#000" stroke="none"/><circle cx="284" cy="60" r="4" fill="#000" stroke="none"/><circle cx="228" cy="212" r="4" fill="#000" stroke="none"/><circle cx="516" cy="236" r="4" fill="#000" stroke="none"/><circle cx="196" cy="252" r="4" fill="#000" stroke="none"/><circle cx="228" cy="228" r="4" fill="#000" stroke="none"/><circle cx="188" cy="260" r="4" fill="#000" stroke="none"/><circle cx="196" cy="260" r="4" fill="#000" stroke="none"/><circle cx="308" cy="76" r="4" fill="#000" stroke="none"/><circle cx="340" cy="76" r="4" fill="#000" stroke="none"/><circle cx="228" cy="228" r="4" fill="#000" stroke="none"/><circle cx="300" cy="364" r="4" fill="#000" stroke="none"/><circle cx="284" cy="172" r="4" fill="#000" stroke="none"/><circle cx="284" cy="68" r="4" fill="#000" stroke="none"/><circle cx="212" cy="252" r="4" fill="#000" stroke="none"/><circle cx="428" cy="412" r="4" fill="#000" stroke="none"/><circle cx="172" cy="284" r="4" fill="#000" stroke="none"/><circle cx="188" cy="348" r="4" fill="#000" stroke="none"/><circle cx="268" cy="188" r="4" fill="#000" stroke="none"/><circle cx="292" cy="244" r="4" fill="#000" stroke="none"/><circle cx="196" cy="276" r="4" fill="#000" stroke="none"/><circle cx="172" cy="268" r="4" fill="#000" stroke="none"/><circle cx="228" cy="244" r="4" fill="#000" stroke="none"/><circle cx="228" cy="188" r="4" fill="#000" stroke="none"/><circle cx="28" cy="340" r="4" fill="#000" stroke="none"/><circle cx="36" cy="404" r="4" fill="#000" stroke="none"/><circle cx="340" cy="44" r="4" fill="#000" stroke="none"/><circle cx="332" cy="12" r="4" fill="#000" stroke="none"/><circle cx="324" cy="132" r="4" fill="#000" stroke="none"/><circle cx="468" cy="12" r="4" fill="#000" stroke="none"/><circle cx="212" cy="284" r="4" fill="#000" stroke="none"/><circle cx="284" cy="172" r="4" fill="#000" stroke="none"/><circle cx="356" cy="68" r="4" fill="#000" stroke="none"/><circle cx="452" cy="52" r="4" fill="#000" stroke="none"/><circle cx="28" cy="364" r="4" fill="#000" stroke="none"/><circle cx="28" cy="404" r="4" fill="#000" stroke="none"/><circle cx="20" cy="372" r="4" fill="#000" stroke="none"/><circle cx="44" cy="556" r="4" fill="#000" stroke="none"/><circle cx="292" cy="236" r="4" fill="#000" stroke="none"/><circle cx="324" cy="132" r="4" fill="#000" stroke="none"/><circle cx="356" cy="116" r="4" fill="#000" stroke="none"/><circle cx="452" cy="164" r="4" fill="#000" stroke="none"/><circle cx="372" cy="60" r="4" fill="#000" stroke="none"/><circle cx="484" cy="116" r="4" fill="#000" stroke="none"/><circle cx="372" cy="68" r="4" fill="#000" stroke="none"/><circle cx="452" cy="60" r="4" fill="#000" stroke="none"/><circle cx="380" cy="60" r="4" fill="#000" stroke="none"/><circle cx="420" cy="76" r="4" fill="#000" stroke="none"/><circle cx="380" cy="68" r="4" fill="#000" stroke="none"/><circle cx="420" cy="60" r="4" fill="#000" stroke="none"/><circle cx="372" cy="108" r="4" fill="#000" stroke="none"/><circle cx="484" cy="60" r="4" fill="#000" stroke="none"/><circle cx="356" cy="148" r="4" fill="#000" stroke="none"/><circle cx="452" cy="100" r="4" fill="#000" stroke="none"/><circle cx="228" cy="324" r="4" fill="#000" stroke="none"/><circle cx="228" cy="348" r="4" fill="#000" stroke="none"/><circle cx="300" cy="260" r="4" fill="#000" stroke="none"/><circle cx="300" cy="252" r="4" fill="#000" stroke="none"/><circle cx="380" cy="108" r="4" fill="#000" stroke="none"/><circle cx="420" cy="92" r="4" fill="#000" stroke="none"/><circle cx="84" cy="380" r="4" fill="#000" stroke="none"/><circle cx="84" cy="404" r="4" fill="#000" stroke="none"/><circle cx="380" cy="116" r="4" fill="#000" stroke="none"/><circle cx="412" cy="124" r="4" fill="#000" stroke="none"/><circle cx="372" cy="148" r="4" fill="#000" stroke="none"/><circle cx="452" cy="116" r="4" fill="#000" stroke="none"/><circle cx="396" cy="116" r="4" fill="#000" stroke="none"/><circle cx="396" cy="140" r="4" fill="#000" stroke="none"/><circle cx="380" cy="148" r="4" fill="#000" stroke="none"/><circle cx="420" cy="140" r="4" fill="#000" stroke="none"/><circle cx="396" cy="108" r="4" fill="#000" stroke="none"/><circle cx="396" cy="148" r="4" fill="#000" stroke="none"/><circle cx="396" cy="148" r="4" fill="#000" stroke="none"/><circle cx="404" cy="172" r="4" fill="#000" stroke="none"/><circle cx="28" cy="420" r="4" fill="#000" stroke="none"/><circle cx="100" cy="444" r="4" fill="#000" stroke="none"/><circle cx="356" cy="244" r="4" fill="#000" stroke="none"/><circle cx="404" cy="308" r="4" fill="#000" stroke="none"/><circle cx="396" cy="172" r="4" fill="#000" stroke="none"/><circle cx="468" cy="300" r="4" fill="#000" stroke="none"/><circle cx="108" cy="420" r="4" fill="#000" stroke="none"/><circle cx="108" cy="476" r="4" fill="#000" stroke="none"/><circle cx="100" cy="420" r="4" fill="#000" stroke="none"/><circle cx="84" cy="420" r="4" fill="#000" stroke="none"/><circle cx="284" cy="340" r="4" fill="#000" stroke="none"/><circle cx="492" cy="476" r="4" fill="#000" stroke="none"/><circle cx="84" cy="444" r="4" fill="#000" stroke="none"/><circle cx="172" cy="300" r="4" fill="#000" stroke="none"/><circle cx="356" cy="268" r="4" fill="#000" stroke="none"/><circle cx="404" cy="300" r="4" fill="#000" stroke="none"/><circle cx="100" cy="436" r="4" fill="#000" stroke="none"/><circle cx="108" cy="484" r="4" fill="#000" stroke="none"/><circle cx="92" cy="436" r="4" fill="#000" stroke="none"/><circle cx="148" cy="444" r="4" fill="#000" stroke="none"/><circle cx="92" cy="444" r="4" fill="#000" stroke="none"/><circle cx="108" cy="316" r="4" fill="#000" stroke="none"/><circle cx="452" cy="12" r="4" fill="#000" stroke="none"/><circle cx="548" cy="468" r="4" fill="#000" stroke="none"/><circle cx="356" cy="284" r="4" fill="#000" stroke="none"/><circle cx="412" cy="468" r="4" fill="#000" stroke="none"/><circle cx="452" cy="108" r="4" fill="#000" stroke="none"/><circle cx="468" cy="108" r="4" fill="#000" stroke="none"/><circle cx="396" cy="244" r="4" fill="#000" stroke="none"/><circle cx="420" cy="252" r="4" fill="#000" stroke="none"/><circle cx="452" cy="100" r="4" fill="#000" stroke="none"/><circle cx="468" cy="100" r="4" fill="#000" stroke="none"/><circle cx="300" cy="356" r="4" fill="#000" stroke="none"/><circle cx="268" cy="412" r="4" fill="#000" stroke="none"/><circle cx="132" cy="444" r="4" fill="#000" stroke="none"/><circle cx="324" cy="468" r="4" fill="#000" stroke="none"/><circle cx="468" cy="36" r="4" fill="#000" stroke="none"/><circle cx="268" cy="372" r="4" fill="#000" stroke="none"/><circle cx="380" cy="292" r="4" fill="#000" stroke="none"/><circle cx="356" cy="276" r="4" fill="#000" stroke="none"/><circle cx="300" cy="372" r="4" fill="#000" stroke="none"/><circle cx="340" cy="356" r="4" fill="#000" stroke="none"/><circle cx="468" cy="108" r="4" fill="#000" stroke="none"/><circle cx="556" cy="100" r="4" fill="#000" stroke="none"/><circle cx="468" cy="100" r="4" fill="#000" stroke="none"/><circle cx="556" cy="116" r="4" fill="#000" stroke="none"/><circle cx="452" cy="180" r="4" fill="#000" stroke="none"/><circle cx="484" cy="180" r="4" fill="#000" stroke="none"/><circle cx="68" cy="484" r="4" fill="#000" stroke="none"/><circle cx="44" cy="444" r="4" fill="#000" stroke="none"/><circle cx="108" cy="476" r="4" fill="#000" stroke="none"/><circle cx="396" cy="316" r="4" fill="#000" stroke="none"/><circle cx="484" cy="52" r="4" fill="#000" stroke="none"/><circle cx="500" cy="52" r="4" fill="#000" stroke="none"/><circle cx="468" cy="148" r="4" fill="#000" stroke="none"/><circle cx="468" cy="92" r="4" fill="#000" stroke="none"/><circle cx="108" cy="484" r="4" fill="#000" stroke="none"/><circle cx="100" cy="420" r="4" fill="#000" stroke="none"/><circle cx="484" cy="116" r="4" fill="#000" stroke="none"/><circle cx="500" cy="116" r="4" fill="#000" stroke="none"/><circle cx="452" cy="212" r="4" fill="#000" stroke="none"/><circle cx="484" cy="92" r="4" fill="#000" stroke="none"/><circle cx="364" cy="356" r="4" fill="#000" stroke="none"/><circle cx="468" cy="348" r="4" fill="#000" stroke="none"/><circle cx="484" cy="156" r="4" fill="#000" stroke="none"/><circle cx="500" cy="156" r="4" fill="#000" stroke="none"/><circle cx="500" cy="52" r="4" fill="#000" stroke="none"/><circle cx="556" cy="60" r="4" fill="#000" stroke="none"/><circle cx="500" cy="44" r="4" fill="#000" stroke="none"/><circle cx="500" cy="92" r="4" fill="#000" stroke="none"/><circle cx="500" cy="36" r="4" fill="#000" stroke="none"/><circle cx="468" cy="36" r="4" fill="#000" stroke="none"/><circle cx="500" cy="116" r="4" fill="#000" stroke="none"/><circle cx="468" cy="284" r="4" fill="#000" stroke="none"/><circle cx="476" cy="196" r="4" fill="#000" stroke="none"/><circle cx="452" cy="44" r="4" fill="#000" stroke="none"/><circle cx="500" cy="156" r="4" fill="#000" stroke="none"/><circle cx="532" cy="156" r="4" fill="#000" stroke="none"/><circle cx="204" cy="484" r="4" fill="#000" stroke="none"/><circle cx="252" cy="468" r="4" fill="#000" stroke="none"/><circle cx="524" cy="12" r="4" fill="#000" stroke="none"/><circle cx="548" cy="148" r="4" fill="#000" stroke="none"/><circle cx="204" cy="500" r="4" fill="#000" stroke="none"/><circle cx="252" cy="484" r="4" fill="#000" stroke="none"/><circle cx="500" cy="196" r="4" fill="#000" stroke="none"/><circle cx="484" cy="68" r="4" fill="#000" stroke="none"/><circle cx="68" cy="540" r="4" fill="#000" stroke="none"/><circle cx="92" cy="308" r="4" fill="#000" stroke="none"/><circle cx="484" cy="276" r="4" fill="#000" stroke="none"/><circle cx="484" cy="364" r="4" fill="#000" stroke="none"/><circle cx="324" cy="452" r="4" fill="#000" stroke="none"/><circle cx="380" cy="468" r="4" fill="#000" stroke="none"/><circle cx="532" cy="156" r="4" fill="#000" stroke="none"/><circle cx="532" cy="12" r="4" fill="#000" stroke="none"/><circle cx="28" cy="548" r="4" fill="#000" stroke="none"/><circle cx="60" cy="500" r="4" fill="#000" stroke="none"/><circle cx="12" cy="548" r="4" fill="#000" stroke="none"/><circle cx="28" cy="540" r="4" fill="#000" stroke="none"/><circle cx="108" cy="548" r="4" fill="#000" stroke="none"/><circle cx="436" cy="484" r="4" fill="#000" stroke="none"/><circle cx="508" cy="236" r="4" fill="#000" stroke="none"/><circle cx="508" cy="12" r="4" fill="#000" stroke="none"/><circle cx="548" cy="108" r="4" fill="#000" stroke="none"/><circle cx="548" cy="12" r="4" fill="#000" stroke="none"/><circle cx="36" cy="564" r="4" fill="#000" stroke="none"/><circle cx="204" cy="484" r="4" fill="#000" stroke="none"/><circle cx="484" cy="300" r="4" fill="#000" stroke="none"/><circle cx="516" cy="284" r="4" fill="#000" stroke="none"/><circle cx="308" cy="476" r="4" fill="#000" stroke="none"/><circle cx="340" cy="548" r="4" fill="#000" stroke="none"/><circle cx="532" cy="204" r="4" fill="#000" stroke="none"/><circle cx="540" cy="284" r="4" fill="#000" stroke="none"/><circle cx="180" cy="548" r="4" fill="#000" stroke="none"/><circle cx="212" cy="548" r="4" fill="#000" stroke="none"/><circle cx="476" cy="332" r="4" fill="#000" stroke="none"/><circle cx="540" cy="332" r="4" fill="#000" stroke="none"/><circle cx="308" cy="492" r="4" fill="#000" stroke="none"/><circle cx="356" cy="476" r="4" fill="#000" stroke="none"/><circle cx="540" cy="204" r="4" fill="#000" stroke="none"/><circle cx="540" cy="196" r="4" fill="#000" stroke="none"/><circle cx="212" cy="548" r="4" fill="#000" stroke="none"/><circle cx="236" cy="476" r="4" fill="#000" stroke="none"/><circle cx="468" cy="348" r="4" fill="#000" stroke="none"/><circle cx="532" cy="340" r="4" fill="#000" stroke="none"/><circle cx="172" cy="564" r="4" fill="#000" stroke="none"/><circle cx="204" cy="564" r="4" fill="#000" stroke="none"/><circle cx="380" cy="452" r="4" fill="#000" stroke="none"/><circle cx="412" cy="452" r="4" fill="#000" stroke="none"/><circle cx="180" cy="564" r="4" fill="#000" stroke="none"/><circle cx="204" cy="508" r="4" fill="#000" stroke="none"/><circle cx="460" cy="372" r="4" fill="#000" stroke="none"/><circle cx="484" cy="348" r="4" fill="#000" stroke="none"/><circle cx="308" cy="516" r="4" fill="#000" stroke="none"/><circle cx="412" cy="460" r="4" fill="#000" stroke="none"/><circle cx="212" cy="564" r="4" fill="#000" stroke="none"/><circle cx="252" cy="564" r="4" fill="#000" stroke="none"/><circle cx="356" cy="484" r="4" fill="#000" stroke="none"/><circle cx="396" cy="484" r="4" fill="#000" stroke="none"/><circle cx="204" cy="564" r="4" fill="#000" stroke="none"/><circle cx="236" cy="500" r="4" fill="#000" stroke="none"/><circle cx="484" cy="372" r="4" fill="#000" stroke="none"/><circle cx="516" cy="12" r="4" fill="#000" stroke="none"/><circle cx="212" cy="572" r="4" fill="#000" stroke="none"/><circle cx="252" cy="572" r="4" fill="#000" stroke="none"/><circle cx="308" cy="532" r="4" fill="#000" stroke="none"/><circle cx="380" cy="292" r="4" fill="#000" stroke="none"/><circle cx="204" cy="580" r="4" fill="#000" stroke="none"/><circle cx="300" cy="44" r="4" fill="#000" stroke="none"/><circle cx="532" cy="332" r="4" fill="#000" stroke="none"/><circle cx="548" cy="404" r="4" fill="#000" stroke="none"/><circle cx="252" cy="572" r="4" fill="#000" stroke="none"/><circle cx="308" cy="540" r="4" fill="#000" stroke="none"/><circle cx="492" cy="404" r="4" fill="#000" stroke="none"/><circle cx="492" cy="468" r="4" fill="#000" stroke="none"/><circle cx="532" cy="340" r="4" fill="#000" stroke="none"/><circle cx="468" cy="460" r="4" fill="#000" stroke="none"/><circle cx="364" cy="532" r="4" fill="#000" stroke="none"/><circle cx="396" cy="532" r="4" fill="#000" stroke="none"/><circle cx="340" cy="548" r="4" fill="#000" stroke="none"/><circle cx="364" cy="540" r="4" fill="#000" stroke="none"/><circle cx="340" cy="540" r="4" fill="#000" stroke="none"/><circle cx="340" cy="468" r="4" fill="#000" stroke="none"/><circle cx="356" cy="540" r="4" fill="#000" stroke="none"/><circle cx="380" cy="540" r="4" fill="#000" stroke="none"/><circle cx="396" cy="524" r="4" fill="#000" stroke="none"/><circle cx="420" cy="524" r="4" fill="#000" stroke="none"/><circle cx="532" cy="388" r="4" fill="#000" stroke="none"/><circle cx="500" cy="308" r="4" fill="#000" stroke="none"/><circle cx="380" cy="532" r="4" fill="#000" stroke="none"/><circle cx="412" cy="532" r="4" fill="#000" stroke="none"/><circle cx="556" cy="372" r="4" fill="#000" stroke="none"/><circle cx="556" cy="404" r="4" fill="#000" stroke="none"/><circle cx="364" cy="556" r="4" fill="#000" stroke="none"/><circle cx="364" cy="460" r="4" fill="#000" stroke="none"/><circle cx="356" cy="564" r="4" fill="#000" stroke="none"/><circle cx="364" cy="476" r="4" fill="#000" stroke="none"/><circle cx="468" cy="484" r="4" fill="#000" stroke="none"/><circle cx="524" cy="364" r="4" fill="#000" stroke="none"/><circle cx="396" cy="556" r="4" fill="#000" stroke="none"/><circle cx="420" cy="556" r="4" fill="#000" stroke="none"/><circle cx="412" cy="540" r="4" fill="#000" stroke="none"/><circle cx="436" cy="540" r="4" fill="#000" stroke="none"/><circle cx="380" cy="564" r="4" fill="#000" stroke="none"/><circle cx="396" cy="476" r="4" fill="#000" stroke="none"/><circle cx="492" cy="484" r="4" fill="#000" stroke="none"/><circle cx="532" cy="484" r="4" fill="#000" stroke="none"/><circle cx="420" cy="548" r="4" fill="#000" stroke="none"/><circle cx="452" cy="548" r="4" fill="#000" stroke="none"/><circle cx="436" cy="532" r="4" fill="#000" stroke="none"/><circle cx="468" cy="532" r="4" fill="#000" stroke="none"/><circle cx="412" cy="572" r="4" fill="#000" stroke="none"/><circle cx="420" cy="484" r="4" fill="#000" stroke="none"/><circle cx="452" cy="540" r="4" fill="#000" stroke="none"/><circle cx="476" cy="540" r="4" fill="#000" stroke="none"/><circle cx="452" cy="556" r="4" fill="#000" stroke="none"/><circle cx="476" cy="556" r="4" fill="#000" stroke="none"/><circle cx="476" cy="532" r="4" fill="#000" stroke="none"/><circle cx="508" cy="532" r="4" fill="#000" stroke="none"/><circle cx="436" cy="564" r="4" fill="#000" stroke="none"/><circle cx="452" cy="476" r="4" fill="#000" stroke="none"/><circle cx="492" cy="532" r="4" fill="#000" stroke="none"/><circle cx="524" cy="532" r="4" fill="#000" stroke="none"/><circle cx="476" cy="548" r="4" fill="#000" stroke="none"/><circle cx="508" cy="548" r="4" fill="#000" stroke="none"/><circle cx="492" cy="548" r="4" fill="#000" stroke="none"/><circle cx="524" cy="548" r="4" fill="#000" stroke="none"/><circle cx="508" cy="532" r="4" fill="#000" stroke="none"/><circle cx="532" cy="532" r="4" fill="#000" stroke="none"/><circle cx="508" cy="548" r="4" fill="#000" stroke="none"/><circle cx="532" cy="548" r="4" fill="#000" stroke="none"/><circle cx="524" cy="532" r="4" fill="#000" stroke="none"/><circle cx="548" cy="532" r="4" fill="#000" stroke="none"/><circle cx="508" cy="564" r="4" fill="#000" stroke="none"/><circle cx="508" cy="452" r="4" fill="#000" stroke="none"/><circle cx="532" cy="540" r="4" fill="#000" stroke="none"/><circle cx="564" cy="540" r="4" fill="#000" stroke="none"/><circle cx="524" cy="564" r="4" fill="#000" stroke="none"/><circle cx="532" cy="476" r="4" fill="#000" stroke="none"/><circle cx="548" cy="556" r="4" fill="#000" stroke="none"/><circle cx="564" cy="468" r="4" fill="#000" stroke="none"/><circle cx="564" cy="556" r="4" fill="#000" stroke="none"/><circle cx="564" cy="460" r="4" fill="#000" stroke="none"/></svg>